<mxfile host="app.diagrams.net" modified="2020-11-20T13:55:05.574Z" agent="5.0 (Macintosh; Intel Mac OS X 10_14_6) AppleWebKit/537.36 (KHTML, like Gecko) Chrome/86.0.4240.111 Safari/537.36" etag="77GXysv9jZfp-92RBb8O" version="13.10.0" type="github">
  <diagram id="C5RBs43oDa-KdzZeNtuy" name="Page-1">
    <mxGraphModel dx="1895" dy="1023" grid="1" gridSize="10" guides="1" tooltips="1" connect="1" arrows="1" fold="1" page="1" pageScale="1" pageWidth="827" pageHeight="1169" math="0" shadow="0">
      <root>
        <mxCell id="WIyWlLk6GJQsqaUBKTNV-0" />
        <mxCell id="WIyWlLk6GJQsqaUBKTNV-1" parent="WIyWlLk6GJQsqaUBKTNV-0" />
        <mxCell id="WIyWlLk6GJQsqaUBKTNV-2" value="" style="rounded=0;html=1;jettySize=auto;orthogonalLoop=1;fontSize=11;endArrow=block;endFill=0;endSize=8;strokeWidth=3;shadow=0;labelBackgroundColor=none;edgeStyle=orthogonalEdgeStyle;" parent="WIyWlLk6GJQsqaUBKTNV-1" source="WIyWlLk6GJQsqaUBKTNV-3" edge="1">
          <mxGeometry relative="1" as="geometry">
            <mxPoint x="640" y="310" as="targetPoint" />
            <Array as="points">
              <mxPoint x="640" y="300" />
            </Array>
          </mxGeometry>
        </mxCell>
        <mxCell id="WIyWlLk6GJQsqaUBKTNV-3" value="&lt;pre style=&quot;margin-top: 0px ; margin-bottom: 0px ; padding: 0px ; font-size: 22px ; border-radius: 4px ; line-height: inherit ; word-break: break-all ; overflow-wrap: break-word ; background-color: rgb(247 , 247 , 247) ; border: none&quot;&gt;&lt;span class=&quot;c1&quot; style=&quot;margin: 0px ; padding: 0px ; font-style: italic ; font-size: 22px&quot;&gt;&lt;font color=&quot;#1a1a1a&quot;&gt;초기 데이터프레임 뽑아내기&lt;/font&gt;&lt;/span&gt;&lt;/pre&gt;&lt;pre style=&quot;margin-top: 0px ; margin-bottom: 0px ; padding: 0px ; font-size: 22px ; border-radius: 4px ; line-height: inherit ; word-break: break-all ; overflow-wrap: break-word ; background-color: rgb(247 , 247 , 247) ; border: none&quot;&gt;&lt;span class=&quot;c1&quot; style=&quot;margin: 0px ; padding: 0px ; font-style: italic ; font-size: 22px&quot;&gt;&lt;pre style=&quot;margin-top: 0px ; margin-bottom: 0px ; padding: 0px ; color: rgb(51 , 51 , 51) ; border-radius: 4px ; line-height: inherit ; word-break: break-all ; overflow-wrap: break-word ; border: none ; font-style: normal ; font-size: 22px&quot;&gt;&lt;span class=&quot;k&quot; style=&quot;margin: 0px ; padding: 0px ; color: green ; font-size: 22px&quot;&gt;def&lt;/span&gt; &lt;span class=&quot;nf&quot; style=&quot;margin: 0px ; padding: 0px ; color: blue ; font-size: 22px&quot;&gt;netflix_data_init&lt;/span&gt;&lt;span class=&quot;p&quot; style=&quot;margin: 0px ; padding: 0px ; font-size: 22px&quot;&gt;()&lt;/span&gt; &lt;span class=&quot;p&quot; style=&quot;margin: 0px ; padding: 0px ; font-size: 22px&quot;&gt;:&lt;/span&gt;&lt;/pre&gt;&lt;pre style=&quot;color: rgb(51 , 51 , 51) ; margin-top: 0px ; margin-bottom: 0px ; padding: 0px ; border-radius: 4px ; line-height: inherit ; word-break: break-all ; overflow-wrap: break-word ; border: none ; font-style: normal ; font-size: 22px&quot;&gt;&lt;span class=&quot;p&quot; style=&quot;margin: 0px ; padding: 0px ; font-size: 22px&quot;&gt;&lt;pre style=&quot;font-weight: normal ; margin-top: 0px ; margin-bottom: 0px ; padding: 0px ; font-size: 14px ; border-radius: 4px ; line-height: inherit ; word-break: break-all ; overflow-wrap: break-word ; border: none&quot;&gt;기능: Kaggle 데이터에서 원하는 열 값 추출.&lt;/pre&gt;&lt;pre style=&quot;font-weight: normal ; margin-top: 0px ; margin-bottom: 0px ; padding: 0px ; font-size: 14px ; border-radius: 4px ; line-height: inherit ; word-break: break-all ; overflow-wrap: break-word ; border: none&quot;&gt;개봉 연도, 장르, 나이제한&lt;/pre&gt;&lt;/span&gt;&lt;/pre&gt;&lt;/span&gt;&lt;/pre&gt;" style="rounded=1;whiteSpace=wrap;html=1;fontSize=22;glass=0;strokeWidth=2;shadow=0;arcSize=0;fillColor=#f5f5f5;strokeColor=#666666;fontColor=#333333;fontStyle=1" parent="WIyWlLk6GJQsqaUBKTNV-1" vertex="1">
          <mxGeometry x="220" y="130" width="350" height="100" as="geometry" />
        </mxCell>
        <mxCell id="v4P511_lq6QHLKLVtvHj-0" value="&lt;h2 style=&quot;box-sizing: border-box ; margin: 0px 0px 30px ; padding: 0px ; font-family: &amp;#34;futura pt book&amp;#34; ; font-weight: normal ; line-height: 47.5px ; color: rgb(0 , 0 , 0) ; font-style: normal ; font-stretch: normal ; letter-spacing: normal ; text-indent: 0px ; text-transform: none ; word-spacing: 0px ; text-decoration: none&quot;&gt;&lt;font style=&quot;font-size: 30px&quot;&gt;Total_genre_2010~2019&lt;/font&gt;&lt;/h2&gt;" style="text;whiteSpace=wrap;html=1;fillColor=#dae8fc;strokeColor=#6c8ebf;align=center;" parent="WIyWlLk6GJQsqaUBKTNV-1" vertex="1">
          <mxGeometry x="1401" y="240" width="400" height="50" as="geometry" />
        </mxCell>
        <mxCell id="v4P511_lq6QHLKLVtvHj-3" value="&lt;pre style=&quot;margin-top: 0px ; margin-bottom: 0px ; padding: 0px ; font-size: 22px ; border-radius: 4px ; line-height: inherit ; word-break: break-all ; overflow-wrap: break-word ; background-color: rgb(247 , 247 , 247) ; border: none&quot;&gt;&lt;font color=&quot;#1a1a1a&quot;&gt;&lt;span class=&quot;c1&quot; style=&quot;margin: 0px ; padding: 0px ; font-style: italic ; font-size: 22px&quot;&gt;날짜별순으로 원하는 값 뽑아내기 (type과 key값 )&lt;/span&gt;&lt;br style=&quot;font-size: 22px&quot;&gt;&lt;/font&gt;&lt;/pre&gt;&lt;pre style=&quot;margin-top: 0px ; margin-bottom: 0px ; padding: 0px ; font-size: 22px ; border-radius: 4px ; line-height: inherit ; word-break: break-all ; overflow-wrap: break-word ; background-color: rgb(247 , 247 , 247) ; border: none&quot;&gt;&lt;pre style=&quot;margin-top: 0px ; margin-bottom: 0px ; padding: 0px ; border-radius: 4px ; line-height: inherit ; word-break: break-all ; overflow-wrap: break-word ; border: none ; font-size: 22px&quot;&gt;&lt;span class=&quot;k&quot; style=&quot;margin: 0px ; padding: 0px ; color: green ; font-size: 22px&quot;&gt;def&lt;/span&gt; &lt;span class=&quot;nf&quot; style=&quot;margin: 0px ; padding: 0px ; color: blue ; font-size: 22px&quot;&gt;netflix_date_selection&lt;/span&gt;&lt;span class=&quot;p&quot; style=&quot;margin: 0px ; padding: 0px ; font-size: 22px&quot;&gt;(&lt;/span&gt;&lt;span class=&quot;n&quot; style=&quot;margin: 0px ; padding: 0px ; font-size: 22px&quot;&gt;select_col&lt;/span&gt;&lt;span class=&quot;p&quot; style=&quot;margin: 0px ; padding: 0px ; font-size: 22px&quot;&gt;,&lt;/span&gt;&lt;span class=&quot;n&quot; style=&quot;margin: 0px ; padding: 0px ; font-size: 22px&quot;&gt;Name&lt;/span&gt;&lt;span class=&quot;p&quot; style=&quot;margin: 0px ; padding: 0px ; font-size: 22px&quot;&gt;)&lt;/span&gt; &lt;span class=&quot;p&quot; style=&quot;margin: 0px ; padding: 0px ; font-size: 22px&quot;&gt;:&lt;/span&gt;&lt;br style=&quot;font-size: 22px&quot;&gt;&lt;/pre&gt;&lt;pre style=&quot;color: rgb(51 , 51 , 51) ; margin-top: 0px ; margin-bottom: 0px ; padding: 0px ; border-radius: 4px ; line-height: inherit ; word-break: break-all ; overflow-wrap: break-word ; border: none ; font-size: 22px&quot;&gt;&lt;span class=&quot;p&quot; style=&quot;margin: 0px ; padding: 0px ; font-size: 22px&quot;&gt;&lt;pre style=&quot;font-weight: normal ; margin-top: 0px ; margin-bottom: 0px ; padding: 0px ; font-size: 14px ; border-radius: 4px ; line-height: inherit ; word-break: break-all ; overflow-wrap: break-word ; border: none&quot;&gt;&lt;span class=&quot;p&quot; style=&quot;margin: 0px ; padding: 0px&quot;&gt;추출한 열 값에 해당하는 value값 추출 그리고 오름차순 정렬&lt;/span&gt;&lt;/pre&gt;&lt;pre style=&quot;font-weight: normal ; margin-top: 0px ; margin-bottom: 0px ; padding: 0px ; font-size: 14px ; border-radius: 4px ; line-height: inherit ; word-break: break-all ; overflow-wrap: break-word ; border: none&quot;&gt;&lt;span class=&quot;p&quot; style=&quot;margin: 0px ; padding: 0px&quot;&gt;개봉 연도, 장르, 나이제한 value값 추출.&lt;/span&gt;&lt;/pre&gt;&lt;/span&gt;&lt;/pre&gt;&lt;div style=&quot;color: rgb(51 , 51 , 51) ; font-size: 22px&quot;&gt;&lt;span class=&quot;p&quot; style=&quot;margin: 0px ; padding: 0px ; font-size: 22px&quot;&gt;&lt;br style=&quot;font-size: 22px&quot;&gt;&lt;/span&gt;&lt;/div&gt;&lt;/pre&gt;" style="rounded=1;whiteSpace=wrap;html=1;fontSize=22;glass=0;strokeWidth=2;shadow=0;arcSize=0&#xa;;fillColor=#f5f5f5;strokeColor=#666666;fontColor=#333333;fontStyle=1" parent="WIyWlLk6GJQsqaUBKTNV-1" vertex="1">
          <mxGeometry x="320" y="310" width="630" height="130" as="geometry" />
        </mxCell>
        <mxCell id="v4P511_lq6QHLKLVtvHj-4" value="" style="rounded=0;html=1;jettySize=auto;orthogonalLoop=1;fontSize=11;endArrow=block;endFill=0;endSize=8;strokeWidth=3;shadow=0;labelBackgroundColor=none;edgeStyle=orthogonalEdgeStyle;" parent="WIyWlLk6GJQsqaUBKTNV-1" edge="1">
          <mxGeometry relative="1" as="geometry">
            <mxPoint x="629.17" y="440" as="sourcePoint" />
            <mxPoint x="629.17" y="530" as="targetPoint" />
            <Array as="points">
              <mxPoint x="629.17" y="520" />
            </Array>
          </mxGeometry>
        </mxCell>
        <mxCell id="v4P511_lq6QHLKLVtvHj-5" value="&lt;pre style=&quot;margin-top: 0px ; margin-bottom: 0px ; padding: 0px ; font-size: 22px ; border-radius: 4px ; line-height: inherit ; word-break: break-all ; overflow-wrap: break-word ; background-color: rgb(247 , 247 , 247) ; border: none&quot;&gt;&lt;span class=&quot;c1&quot; style=&quot;margin: 0px ; padding: 0px ; font-style: italic ; font-size: 22px&quot;&gt;&lt;font color=&quot;#1a1a1a&quot;&gt;날짜순으로 타입안에 원하는 문자포함되어 있는 행 뽑아내기&lt;/font&gt;&lt;/span&gt;&lt;br style=&quot;font-size: 22px&quot;&gt;&lt;/pre&gt;&lt;pre style=&quot;margin-top: 0px ; margin-bottom: 0px ; padding: 0px ; font-size: 22px ; color: rgb(51 , 51 , 51) ; border-radius: 4px ; line-height: inherit ; word-break: break-all ; overflow-wrap: break-word ; background-color: rgb(247 , 247 , 247) ; border: none&quot;&gt;&lt;pre style=&quot;margin-top: 0px ; margin-bottom: 0px ; padding: 0px ; border-radius: 4px ; line-height: inherit ; word-break: break-all ; overflow-wrap: break-word ; border: none ; font-size: 22px&quot;&gt;&lt;span class=&quot;k&quot; style=&quot;margin: 0px ; padding: 0px ; color: green ; font-size: 22px&quot;&gt;def&lt;/span&gt; &lt;span class=&quot;nf&quot; style=&quot;margin: 0px ; padding: 0px ; color: blue ; font-size: 22px&quot;&gt;netflix_data_findword&lt;/span&gt;&lt;span class=&quot;p&quot; style=&quot;margin: 0px ; padding: 0px ; font-size: 22px&quot;&gt;(&lt;/span&gt;&lt;span class=&quot;n&quot; style=&quot;margin: 0px ; padding: 0px ; font-size: 22px&quot;&gt;netflix_framedata&lt;/span&gt;&lt;span class=&quot;p&quot; style=&quot;margin: 0px ; padding: 0px ; font-size: 22px&quot;&gt;,&lt;/span&gt;&lt;span class=&quot;n&quot; style=&quot;margin: 0px ; padding: 0px ; font-size: 22px&quot;&gt;position&lt;/span&gt;&lt;span class=&quot;p&quot; style=&quot;margin: 0px ; padding: 0px ; font-size: 22px&quot;&gt;,&lt;/span&gt;&lt;span class=&quot;n&quot; style=&quot;margin: 0px ; padding: 0px ; font-size: 22px&quot;&gt;Name&lt;/span&gt;&lt;span class=&quot;p&quot; style=&quot;margin: 0px ; padding: 0px ; font-size: 22px&quot;&gt;)&lt;/span&gt; &lt;span class=&quot;p&quot; style=&quot;margin: 0px ; padding: 0px ; font-size: 22px&quot;&gt;:&lt;/span&gt;&lt;br style=&quot;font-size: 22px&quot;&gt;&lt;/pre&gt;&lt;div style=&quot;font-size: 22px&quot;&gt;&lt;span class=&quot;p&quot; style=&quot;margin: 0px ; padding: 0px ; font-size: 22px&quot;&gt;&lt;pre style=&quot;font-weight: normal ; margin-top: 0px ; margin-bottom: 0px ; padding: 0px ; font-size: 14px ; border-radius: 4px ; line-height: inherit ; word-break: break-all ; overflow-wrap: break-word ; border: none&quot;&gt;&lt;pre style=&quot;margin-top: 0px ; margin-bottom: 0px ; padding: 0px ; border-top-left-radius: 4px ; border-top-right-radius: 4px ; border-bottom-right-radius: 4px ; border-bottom-left-radius: 4px ; line-height: inherit ; word-break: break-all ; overflow-wrap: break-word ; border: none&quot;&gt;추출한 value값에서 원하는 특정 값 추출. &lt;/pre&gt;&lt;pre style=&quot;margin-top: 0px ; margin-bottom: 0px ; padding: 0px ; border-top-left-radius: 4px ; border-top-right-radius: 4px ; border-bottom-right-radius: 4px ; border-bottom-left-radius: 4px ; line-height: inherit ; word-break: break-all ; overflow-wrap: break-word ; border: none&quot;&gt;개봉 연도, 장르, 나이제한 중 top 5만 추출. &lt;/pre&gt;&lt;/pre&gt;&lt;/span&gt;&lt;/div&gt;&lt;/pre&gt;" style="rounded=1;whiteSpace=wrap;html=1;fontSize=22;glass=0;strokeWidth=2;shadow=0;arcSize=0;fillColor=#f5f5f5;strokeColor=#666666;fontColor=#333333;fontStyle=1" parent="WIyWlLk6GJQsqaUBKTNV-1" vertex="1">
          <mxGeometry x="237.5" y="530" width="805" height="100" as="geometry" />
        </mxCell>
        <mxCell id="v4P511_lq6QHLKLVtvHj-6" value="" style="rounded=0;html=1;jettySize=auto;orthogonalLoop=1;fontSize=11;endArrow=block;endFill=0;endSize=8;strokeWidth=3;shadow=0;labelBackgroundColor=none;edgeStyle=orthogonalEdgeStyle;" parent="WIyWlLk6GJQsqaUBKTNV-1" edge="1">
          <mxGeometry relative="1" as="geometry">
            <mxPoint x="631.1700000000001" y="630" as="sourcePoint" />
            <mxPoint x="631.1700000000001" y="720" as="targetPoint" />
            <Array as="points">
              <mxPoint x="631.17" y="710" />
            </Array>
          </mxGeometry>
        </mxCell>
        <mxCell id="hbJDEx1IGWLHkMpEqQxU-16" style="edgeStyle=orthogonalEdgeStyle;rounded=0;orthogonalLoop=1;jettySize=auto;html=1;entryX=0;entryY=0.5;entryDx=0;entryDy=0;strokeWidth=3;strokeColor=#1A1A1A;" edge="1" parent="WIyWlLk6GJQsqaUBKTNV-1" source="v4P511_lq6QHLKLVtvHj-7" target="hbJDEx1IGWLHkMpEqQxU-2">
          <mxGeometry relative="1" as="geometry">
            <Array as="points">
              <mxPoint x="1110" y="760" />
              <mxPoint x="1110" y="360" />
            </Array>
          </mxGeometry>
        </mxCell>
        <mxCell id="hbJDEx1IGWLHkMpEqQxU-17" style="edgeStyle=orthogonalEdgeStyle;rounded=0;orthogonalLoop=1;jettySize=auto;html=1;entryX=0;entryY=0.5;entryDx=0;entryDy=0;strokeColor=#1A1A1A;strokeWidth=3;" edge="1" parent="WIyWlLk6GJQsqaUBKTNV-1" source="v4P511_lq6QHLKLVtvHj-7" target="hbJDEx1IGWLHkMpEqQxU-3">
          <mxGeometry relative="1" as="geometry">
            <Array as="points">
              <mxPoint x="1110" y="760" />
              <mxPoint x="1110" y="585" />
            </Array>
          </mxGeometry>
        </mxCell>
        <mxCell id="hbJDEx1IGWLHkMpEqQxU-18" style="edgeStyle=orthogonalEdgeStyle;rounded=0;orthogonalLoop=1;jettySize=auto;html=1;strokeColor=#1A1A1A;strokeWidth=3;" edge="1" parent="WIyWlLk6GJQsqaUBKTNV-1" source="v4P511_lq6QHLKLVtvHj-7" target="hbJDEx1IGWLHkMpEqQxU-8">
          <mxGeometry relative="1" as="geometry">
            <Array as="points">
              <mxPoint x="1110" y="760" />
              <mxPoint x="1110" y="820" />
            </Array>
          </mxGeometry>
        </mxCell>
        <mxCell id="hbJDEx1IGWLHkMpEqQxU-22" style="edgeStyle=orthogonalEdgeStyle;rounded=0;orthogonalLoop=1;jettySize=auto;html=1;entryX=0;entryY=0.5;entryDx=0;entryDy=0;strokeColor=#b85450;strokeWidth=3;fillColor=#f8cecc;" edge="1" parent="WIyWlLk6GJQsqaUBKTNV-1" source="v4P511_lq6QHLKLVtvHj-7" target="hbJDEx1IGWLHkMpEqQxU-21">
          <mxGeometry relative="1" as="geometry">
            <Array as="points">
              <mxPoint x="1110" y="760" />
              <mxPoint x="1110" y="1030" />
            </Array>
          </mxGeometry>
        </mxCell>
        <mxCell id="v4P511_lq6QHLKLVtvHj-7" value="&lt;pre style=&quot;margin-top: 0px ; margin-bottom: 0px ; padding: 0px ; font-size: 22px ; border-radius: 4px ; line-height: inherit ; word-break: break-all ; overflow-wrap: break-word ; background-color: rgb(247 , 247 , 247) ; border: none&quot;&gt;&lt;font color=&quot;#1a1a1a&quot;&gt;&lt;span class=&quot;c1&quot; style=&quot;margin: 0px ; padding: 0px ; font-style: italic ; font-size: 22px&quot;&gt;데이터프레임에서 반복 갯수세기&lt;/span&gt;&lt;br style=&quot;font-size: 22px&quot;&gt;&lt;/font&gt;&lt;/pre&gt;&lt;pre style=&quot;margin-top: 0px ; margin-bottom: 0px ; padding: 0px ; font-size: 22px ; border-radius: 4px ; line-height: inherit ; word-break: break-all ; overflow-wrap: break-word ; background-color: rgb(247 , 247 , 247) ; border: none&quot;&gt;&lt;pre style=&quot;margin-top: 0px ; margin-bottom: 0px ; padding: 0px ; border-radius: 4px ; line-height: inherit ; word-break: break-all ; overflow-wrap: break-word ; border: none ; font-size: 22px&quot;&gt;&lt;span class=&quot;k&quot; style=&quot;margin: 0px ; padding: 0px ; color: green ; font-size: 22px&quot;&gt;def&lt;/span&gt; &lt;span class=&quot;nf&quot; style=&quot;margin: 0px ; padding: 0px ; color: blue ; font-size: 22px&quot;&gt;netflix_count&lt;/span&gt;&lt;span class=&quot;p&quot; style=&quot;margin: 0px ; padding: 0px ; font-size: 22px&quot;&gt;(&lt;/span&gt;&lt;span class=&quot;n&quot; style=&quot;margin: 0px ; padding: 0px ; font-size: 22px&quot;&gt;netflix_dataframe&lt;/span&gt;&lt;span class=&quot;p&quot; style=&quot;margin: 0px ; padding: 0px ; font-size: 22px&quot;&gt;,&lt;/span&gt;&lt;span class=&quot;n&quot; style=&quot;margin: 0px ; padding: 0px ; font-size: 22px&quot;&gt;collect_type&lt;/span&gt;&lt;span class=&quot;p&quot; style=&quot;margin: 0px ; padding: 0px ; font-size: 22px&quot;&gt;)&lt;/span&gt; &lt;span class=&quot;p&quot; style=&quot;margin: 0px ; padding: 0px ; font-size: 22px&quot;&gt;:&lt;/span&gt;&lt;br style=&quot;font-size: 22px&quot;&gt;&lt;/pre&gt;&lt;div style=&quot;color: rgb(51 , 51 , 51) ; font-size: 22px&quot;&gt;&lt;span class=&quot;p&quot; style=&quot;margin: 0px ; padding: 0px ; font-size: 22px&quot;&gt;&lt;br style=&quot;font-size: 22px&quot;&gt;&lt;/span&gt;&lt;/div&gt;&lt;/pre&gt;" style="rounded=1;whiteSpace=wrap;html=1;fontSize=22;glass=0;strokeWidth=2;shadow=0;arcSize=0;fillColor=#f5f5f5;strokeColor=#666666;fontColor=#333333;fontStyle=1" parent="WIyWlLk6GJQsqaUBKTNV-1" vertex="1">
          <mxGeometry x="290" y="720" width="680" height="80" as="geometry" />
        </mxCell>
        <mxCell id="hbJDEx1IGWLHkMpEqQxU-2" value="&lt;h2 style=&quot;box-sizing: border-box ; margin: 0px 0px 30px ; padding: 0px ; font-family: &amp;#34;futura pt book&amp;#34; ; font-weight: normal ; line-height: 47.5px ; font-size: 22px ; font-stretch: normal&quot;&gt;&lt;i&gt;나라를 기준으로 데이터 추출 후 막대그래프화&lt;/i&gt;&lt;/h2&gt;&lt;div&gt;&lt;font style=&quot;font-size: 22px&quot;&gt;&lt;b&gt;&lt;span style=&quot;color: green&quot;&gt;def&lt;/span&gt;&amp;nbsp;&lt;font color=&quot;#3333ff&quot;&gt;grape_step1&lt;/font&gt;(netflix_data, movie_listed_in, country_listed_in, colors):&lt;/b&gt;&lt;/font&gt;&lt;/div&gt;" style="text;whiteSpace=wrap;html=1;fillColor=#dae8fc;strokeColor=#6c8ebf;align=center;" vertex="1" parent="WIyWlLk6GJQsqaUBKTNV-1">
          <mxGeometry x="1220" y="300" width="790" height="120" as="geometry" />
        </mxCell>
        <mxCell id="hbJDEx1IGWLHkMpEqQxU-3" value="&lt;h2 style=&quot;box-sizing: border-box ; margin: 0px 0px 30px ; padding: 0px ; font-family: &amp;#34;futura pt book&amp;#34; ; font-weight: normal ; line-height: 47.5px ; font-size: 22px ; font-stretch: normal&quot;&gt;&lt;i&gt;장르를 기준으로 데이터 추출 후 막대그래프화&lt;/i&gt;&lt;/h2&gt;&lt;div&gt;&lt;b style=&quot;font-size: 22px&quot;&gt;&lt;span style=&quot;color: green&quot;&gt;def&lt;/span&gt;&amp;nbsp;&lt;font color=&quot;#3333ff&quot;&gt;grape_step4_pre&lt;/font&gt;&amp;nbsp;(year,nation,netflix_age,movie_listed_in):&lt;/b&gt;&lt;i&gt;&lt;br&gt;&lt;/i&gt;&lt;/div&gt;" style="text;whiteSpace=wrap;html=1;fillColor=#fff2cc;strokeColor=#d6b656;align=center;" vertex="1" parent="WIyWlLk6GJQsqaUBKTNV-1">
          <mxGeometry x="1275" y="530" width="680" height="110" as="geometry" />
        </mxCell>
        <mxCell id="hbJDEx1IGWLHkMpEqQxU-4" value="&lt;h2 style=&quot;box-sizing: border-box ; margin: 0px 0px 30px ; padding: 0px ; font-family: &amp;#34;futura pt book&amp;#34; ; font-weight: normal ; line-height: 47.5px ; color: rgb(0 , 0 , 0) ; font-style: normal ; font-stretch: normal ; letter-spacing: normal ; text-indent: 0px ; text-transform: none ; word-spacing: 0px ; text-decoration: none&quot;&gt;&lt;font style=&quot;font-size: 30px&quot;&gt;Film rating_2016~2019&lt;/font&gt;&lt;/h2&gt;" style="text;whiteSpace=wrap;html=1;fillColor=#fff2cc;strokeColor=#d6b656;align=center;" vertex="1" parent="WIyWlLk6GJQsqaUBKTNV-1">
          <mxGeometry x="1411" y="460" width="390" height="60" as="geometry" />
        </mxCell>
        <mxCell id="hbJDEx1IGWLHkMpEqQxU-5" value="&lt;h2 style=&quot;box-sizing: border-box ; margin: 0px 0px 30px ; padding: 0px ; font-family: &amp;#34;futura pt book&amp;#34; ; font-weight: normal ; line-height: 47.5px ; color: rgb(0 , 0 , 0) ; font-style: normal ; font-stretch: normal ; letter-spacing: normal ; text-indent: 0px ; text-transform: none ; word-spacing: 0px ; text-decoration: none&quot;&gt;&lt;span style=&quot;font-size: 30px&quot;&gt;Genre_film rating&lt;/span&gt;&lt;/h2&gt;" style="text;whiteSpace=wrap;html=1;fillColor=#e1d5e7;strokeColor=#9673a6;align=center;" vertex="1" parent="WIyWlLk6GJQsqaUBKTNV-1">
          <mxGeometry x="1420" y="670" width="390" height="60" as="geometry" />
        </mxCell>
        <mxCell id="hbJDEx1IGWLHkMpEqQxU-6" style="edgeStyle=orthogonalEdgeStyle;rounded=0;orthogonalLoop=1;jettySize=auto;html=1;exitX=0.5;exitY=1;exitDx=0;exitDy=0;" edge="1" parent="WIyWlLk6GJQsqaUBKTNV-1" source="hbJDEx1IGWLHkMpEqQxU-3" target="hbJDEx1IGWLHkMpEqQxU-3">
          <mxGeometry relative="1" as="geometry" />
        </mxCell>
        <mxCell id="hbJDEx1IGWLHkMpEqQxU-8" value="&lt;h2 style=&quot;box-sizing: border-box ; margin: 0px 0px 30px ; padding: 0px ; font-family: &amp;#34;futura pt book&amp;#34; ; font-weight: normal ; line-height: 47.5px ; color: rgb(0 , 0 , 0) ; font-style: normal ; font-stretch: normal ; letter-spacing: normal ; text-indent: 0px ; text-transform: none ; word-spacing: 0px ; text-decoration: none ; font-size: 22px&quot;&gt;x변수: 연도, Y변수:장르, Z변수: 나이&amp;nbsp;&lt;/h2&gt;&lt;b&gt;&lt;span style=&quot;font-size: 22px&quot;&gt;&lt;span style=&quot;color: green&quot;&gt;def&amp;nbsp;&lt;/span&gt;&lt;/span&gt;&lt;span style=&quot;font-family: &amp;#34;futura pt book&amp;#34; ; font-size: 22px&quot;&gt;&lt;font color=&quot;#3333ff&quot;&gt;circle_3D_graphe&lt;/font&gt;(x,y,z):&lt;/span&gt;&lt;span style=&quot;font-size: 22px&quot;&gt;&lt;span style=&quot;color: green&quot;&gt;&lt;br&gt;&lt;/span&gt;&lt;/span&gt;&lt;/b&gt;&lt;div&gt;&lt;br&gt;&lt;/div&gt;" style="text;whiteSpace=wrap;html=1;fillColor=#e1d5e7;strokeColor=#9673a6;align=center;" vertex="1" parent="WIyWlLk6GJQsqaUBKTNV-1">
          <mxGeometry x="1255" y="740" width="700" height="140" as="geometry" />
        </mxCell>
        <mxCell id="hbJDEx1IGWLHkMpEqQxU-10" value="&lt;pre style=&quot;margin-top: 0px ; margin-bottom: 0px ; padding: 0px ; font-size: 22px ; border-radius: 4px ; line-height: inherit ; word-break: break-all ; overflow-wrap: break-word ; background-color: rgb(247 , 247 , 247) ; border: none&quot;&gt;&lt;span class=&quot;c1&quot; style=&quot;margin: 0px ; padding: 0px ; font-style: italic ; font-size: 22px&quot;&gt;&lt;font color=&quot;#1a1a1a&quot;&gt;초기 데이터프레임 뽑아내기&lt;/font&gt;&lt;/span&gt;&lt;/pre&gt;&lt;pre style=&quot;margin-top: 0px ; margin-bottom: 0px ; padding: 0px ; border-radius: 4px ; line-height: inherit ; word-break: break-all ; overflow-wrap: break-word ; background-color: rgb(247 , 247 , 247) ; border: none&quot;&gt;&lt;span class=&quot;c1&quot; style=&quot;margin: 0px ; padding: 0px ; font-style: italic&quot;&gt;&lt;pre style=&quot;margin-top: 0px ; margin-bottom: 0px ; padding: 0px ; color: rgb(51 , 51 , 51) ; border-radius: 4px ; line-height: inherit ; word-break: break-all ; overflow-wrap: break-word ; border: none ; font-style: normal&quot;&gt;&lt;pre style=&quot;font-size: 22px ; margin-top: 0px ; margin-bottom: 0px ; padding: 0px ; border-radius: 4px ; line-height: inherit ; word-break: break-all ; overflow-wrap: break-word ; border: none&quot;&gt;&lt;span class=&quot;k&quot; style=&quot;font-weight: normal ; margin: 0px ; padding: 0px ; color: green&quot;&gt;def&lt;/span&gt;&lt;span style=&quot;font-weight: normal&quot;&gt; &lt;/span&gt;&lt;span class=&quot;nf&quot; style=&quot;margin: 0px ; padding: 0px ; color: blue&quot;&gt;netflix_API_data_init&lt;/span&gt;&lt;span class=&quot;p&quot; style=&quot;font-weight: normal ; margin: 0px ; padding: 0px&quot;&gt;():&lt;/span&gt;&lt;span style=&quot;font-weight: normal&quot;&gt;&lt;br&gt;&lt;/span&gt;&lt;/pre&gt;&lt;div&gt;&lt;span class=&quot;p&quot; style=&quot;margin: 0px ; padding: 0px&quot;&gt;&lt;font style=&quot;font-size: 14px&quot;&gt;기능: rapid api데이터에서 원하는 열 값 추출.&lt;/font&gt;&lt;/span&gt;&lt;/div&gt;&lt;div&gt;&lt;span class=&quot;p&quot; style=&quot;margin: 0px ; padding: 0px&quot;&gt;&lt;font style=&quot;font-size: 14px&quot;&gt;회사이름, 연도, 장르&lt;/font&gt;&lt;/span&gt;&lt;/div&gt;&lt;/pre&gt;&lt;/span&gt;&lt;/pre&gt;" style="rounded=1;whiteSpace=wrap;html=1;fontSize=22;glass=0;strokeWidth=2;shadow=0;arcSize=0;fillColor=#f5f5f5;strokeColor=#666666;fontStyle=1;fontColor=#333333;" vertex="1" parent="WIyWlLk6GJQsqaUBKTNV-1">
          <mxGeometry x="680" y="120" width="510" height="110" as="geometry" />
        </mxCell>
        <mxCell id="hbJDEx1IGWLHkMpEqQxU-11" value="" style="rounded=0;html=1;jettySize=auto;orthogonalLoop=1;fontSize=11;endArrow=block;endFill=0;endSize=8;strokeWidth=3;shadow=0;labelBackgroundColor=none;edgeStyle=orthogonalEdgeStyle;exitX=0.5;exitY=1;exitDx=0;exitDy=0;strokeColor=#FF6666;" edge="1" parent="WIyWlLk6GJQsqaUBKTNV-1" source="hbJDEx1IGWLHkMpEqQxU-10">
          <mxGeometry relative="1" as="geometry">
            <mxPoint x="650" y="310" as="targetPoint" />
            <Array as="points">
              <mxPoint x="885" y="300" />
              <mxPoint x="650" y="300" />
            </Array>
            <mxPoint x="405" y="240" as="sourcePoint" />
          </mxGeometry>
        </mxCell>
        <mxCell id="hbJDEx1IGWLHkMpEqQxU-13" value="" style="rounded=0;html=1;jettySize=auto;orthogonalLoop=1;fontSize=11;endArrow=block;endFill=0;endSize=8;strokeWidth=3;shadow=0;labelBackgroundColor=none;edgeStyle=orthogonalEdgeStyle;strokeColor=#FF6666;" edge="1" parent="WIyWlLk6GJQsqaUBKTNV-1">
          <mxGeometry relative="1" as="geometry">
            <mxPoint x="641.1700000000001" y="440" as="sourcePoint" />
            <mxPoint x="641.1700000000001" y="530" as="targetPoint" />
            <Array as="points">
              <mxPoint x="641.17" y="520" />
            </Array>
          </mxGeometry>
        </mxCell>
        <mxCell id="hbJDEx1IGWLHkMpEqQxU-15" value="" style="rounded=0;html=1;jettySize=auto;orthogonalLoop=1;fontSize=11;endArrow=block;endFill=0;endSize=8;strokeWidth=3;shadow=0;labelBackgroundColor=none;edgeStyle=orthogonalEdgeStyle;fillColor=#f8cecc;strokeColor=#FF6666;" edge="1" parent="WIyWlLk6GJQsqaUBKTNV-1">
          <mxGeometry relative="1" as="geometry">
            <mxPoint x="643.1700000000001" y="630" as="sourcePoint" />
            <mxPoint x="643.1700000000001" y="720" as="targetPoint" />
            <Array as="points">
              <mxPoint x="643.17" y="710" />
            </Array>
          </mxGeometry>
        </mxCell>
        <mxCell id="hbJDEx1IGWLHkMpEqQxU-19" value="&lt;h2 style=&quot;box-sizing: border-box ; margin: 0px 0px 30px ; padding: 0px ; font-family: &amp;#34;futura pt book&amp;#34; ; font-weight: normal ; line-height: 47.5px ; color: rgb(0 , 0 , 0) ; font-style: normal ; font-stretch: normal ; letter-spacing: normal ; text-indent: 0px ; text-transform: none ; word-spacing: 0px ; text-decoration: none&quot;&gt;&lt;span style=&quot;font-size: 30px&quot;&gt;Streaming_Compare&lt;/span&gt;&lt;/h2&gt;" style="text;whiteSpace=wrap;html=1;fillColor=#e1d5e7;strokeColor=#9673a6;align=center;" vertex="1" parent="WIyWlLk6GJQsqaUBKTNV-1">
          <mxGeometry x="1330" y="910" width="579" height="60" as="geometry" />
        </mxCell>
        <mxCell id="hbJDEx1IGWLHkMpEqQxU-21" value="&lt;h2 style=&quot;box-sizing: border-box ; margin: 0px 0px 30px ; padding: 0px ; font-family: &amp;#34;futura pt book&amp;#34; ; font-weight: normal ; line-height: 47.5px ; font-style: normal ; font-stretch: normal ; letter-spacing: normal ; text-indent: 0px ; text-transform: none ; word-spacing: 0px ; text-decoration: none&quot;&gt;&lt;b style=&quot;font-family: &amp;#34;helvetica&amp;#34; ; font-size: 12px&quot;&gt;&lt;span style=&quot;font-size: 22px&quot;&gt;&lt;span style=&quot;color: green&quot;&gt;def &lt;/span&gt;&lt;font color=&quot;#3333ff&quot;&gt;graphe_step5(select, years_listed, Genre_lists,sreamings)&lt;/font&gt;&lt;span style=&quot;color: green&quot;&gt;:&lt;/span&gt;&lt;/span&gt;&lt;/b&gt;&lt;br&gt;&lt;/h2&gt;" style="text;whiteSpace=wrap;html=1;fillColor=#e1d5e7;strokeColor=#9673a6;align=center;" vertex="1" parent="WIyWlLk6GJQsqaUBKTNV-1">
          <mxGeometry x="1265.5" y="980" width="699" height="100" as="geometry" />
        </mxCell>
      </root>
    </mxGraphModel>
  </diagram>
</mxfile>
